<svg id="Layer_1" data-name="Layer 1" xmlns="http://www.w3.org/2000/svg" xmlns:xlink="http://www.w3.org/1999/xlink" viewBox="0 0 203.2 203.7">
  <defs>
    <style>
      .cls-1 {
        fill: #f9be49;
      }

      .cls-2 {
        fill: #d4e037;
      }

      .cls-3 {
        fill: #007df7;
      }

      .cls-4 {
        fill: #ef275d;
      }

      .cls-5 {
        fill: url(#linear-gradient);
      }

      .cls-6 {
        fill: url(#linear-gradient-2);
      }

      .cls-7 {
        fill: url(#linear-gradient-3);
      }

      .cls-8 {
        fill: url(#linear-gradient-4);
      }

      .cls-9 {
        fill: url(#linear-gradient-5);
      }

      .cls-10 {
        fill: url(#linear-gradient-6);
      }

      .cls-11 {
        fill: url(#linear-gradient-7);
      }

      .cls-12 {
        fill: #ff184b;
      }
    </style>
    <linearGradient id="linear-gradient" x1="-8106" y1="-6934.02" x2="-8106" y2="-6932.75" gradientTransform="translate(12317.4 3533) rotate(-24.7) scale(1.2)" gradientUnits="userSpaceOnUse">
      <stop offset="0" stop-color="#920040"/>
      <stop offset="0.05" stop-color="#ae0052"/>
      <stop offset="0.12" stop-color="#d10069"/>
      <stop offset="0.19" stop-color="#ea007a"/>
      <stop offset="0.25" stop-color="#fa0084"/>
      <stop offset="0.3" stop-color="#ff0087"/>
      <stop offset="0.35" stop-color="#ff1a8b"/>
      <stop offset="0.43" stop-color="#ff3f92"/>
      <stop offset="0.5" stop-color="#ff5696"/>
      <stop offset="0.55" stop-color="#ff5e97"/>
      <stop offset="0.58" stop-color="#ff5696"/>
      <stop offset="0.64" stop-color="#ff3f92"/>
      <stop offset="0.71" stop-color="#ff198b"/>
      <stop offset="0.75" stop-color="#ff0087"/>
      <stop offset="0.79" stop-color="#fa0084"/>
      <stop offset="0.84" stop-color="#ea007a"/>
      <stop offset="0.9" stop-color="#d10069"/>
      <stop offset="0.96" stop-color="#ae0053"/>
      <stop offset="1" stop-color="#920040"/>
    </linearGradient>
    <linearGradient id="linear-gradient-2" x1="-8738.29" y1="-9001.71" x2="-8738.96" y2="-9000.73" gradientTransform="matrix(-1.19, -0.24, 0.24, -1.19, -8149.29, -12624.42)" xlink:href="#linear-gradient"/>
    <linearGradient id="linear-gradient-3" x1="-7749.84" y1="-8409.14" x2="-7749.96" y2="-8410.93" gradientTransform="matrix(-0.94, 2.79, -2.79, -0.94, -30680.39, 13769.43)" xlink:href="#linear-gradient"/>
    <linearGradient id="linear-gradient-4" x1="-8099.84" y1="-6217.4" x2="-8100.14" y2="-6218.79" gradientTransform="translate(7397.4 1783.2) rotate(-24.3) scale(0.74)" xlink:href="#linear-gradient"/>
    <linearGradient id="linear-gradient-5" x1="-7742.71" y1="-7926.37" x2="-7743" y2="-7927.76" gradientTransform="matrix(2.68, 2.37, -2.37, 2.68, 2066.75, 39605.66)" xlink:href="#linear-gradient"/>
    <linearGradient id="linear-gradient-6" x1="-8405.37" y1="-7087.19" x2="-8405.52" y2="-7085.74" gradientTransform="matrix(0.98, -0.87, 0.87, 0.98, 14415.24, -254.4)" xlink:href="#linear-gradient"/>
    <linearGradient id="linear-gradient-7" x1="-7900.3" y1="-8399.47" x2="-7900.09" y2="-8398.33" gradientTransform="translate(-42088.2 6662.3) rotate(124.5) scale(3.71)" xlink:href="#linear-gradient"/>
  </defs>
  <title>HBD</title>
  <g>
    <g>
      <path class="cls-1" d="M154.8,102.2c-.6,1.6-.2,3,.9,5a19.8,19.8,0,0,1,8.9-1.6c-.7-1.6-.7-2.8-.2-5.3A24.9,24.9,0,0,0,154.8,102.2Z"/>
      <path class="cls-2" d="M144.1,94.4a2,2,0,0,1,.7,1,10.2,10.2,0,0,1,1.8-1.8,1.7,1.7,0,0,0-.6-1A7.5,7.5,0,0,0,144.1,94.4Z"/>
      <path class="cls-3" d="M156.5,95.9a6,6,0,0,0,2.9,1.2,2.9,2.9,0,0,0,.7-1.8,5.8,5.8,0,0,1-2.9-1.2C157.2,95,157.1,95.5,156.5,95.9Z"/>
      <path class="cls-1" d="M89.6,44.9c.6-1,1.6-1.8,4.4-2.6a5.8,5.8,0,0,0-2.6-2.8,12.1,12.1,0,0,0-4.6,3.1A6.1,6.1,0,0,1,89.6,44.9Z"/>
      <path class="cls-3" d="M122.5,44.7a2.3,2.3,0,0,0-.6-1.3,1,1,0,0,0-.8.4,2.6,2.6,0,0,1,.6,1.3A1,1,0,0,1,122.5,44.7Z"/>
      <path class="cls-4" d="M149.9,137.7a1,1,0,0,1,.8.8,3.1,3.1,0,0,0,.8-1.5c-.1-.3-.3-.5-.8-.6A2.4,2.4,0,0,1,149.9,137.7Z"/>
      <path class="cls-1" d="M124.9,157.6l.4-.2-.5-1.1-.6.2A2.1,2.1,0,0,1,124.9,157.6Z"/>
      <path class="cls-2" d="M138.4,63.7c-.7.2-1,.6-1.5,1.4a17.2,17.2,0,0,1,4.6,4.7,2.4,2.4,0,0,1,1.6-1.1A16,16,0,0,0,138.4,63.7Z"/>
      <path class="cls-3" d="M25,81.2a4.2,4.2,0,0,1,0-2.5c-.4-.1-.7-.1-.9-.4a6.5,6.5,0,0,0-.2,2.8Z"/>
      <path class="cls-3" d="M61.4,165.2a3,3,0,0,0-.2,1.4,10,10,0,0,1,4.4.5,2.2,2.2,0,0,1,.4-1.3A11.7,11.7,0,0,0,61.4,165.2Z"/>
      <path class="cls-1" d="M108.6,36.3c-1,.2-1.6.8-2.3,2a11.2,11.2,0,0,1,3.6,3.9,4.7,4.7,0,0,1,2.6-1.7A15.5,15.5,0,0,0,108.6,36.3Z"/>
      <path class="cls-5" d="M39.5,59.6a1.4,1.4,0,0,0,.5.8,7.6,7.6,0,0,1,2.5-1.5,1.3,1.3,0,0,1-.3-.8A8.1,8.1,0,0,0,39.5,59.6Z"/>
      <path class="cls-1" d="M39.4,137.6a18.8,18.8,0,0,1,5.9,3.2,5.8,5.8,0,0,0,1.4-3.2,25.6,25.6,0,0,0-5.8-3.6C40.9,135.9,40.7,136.8,39.4,137.6Z"/>
      <path class="cls-2" d="M160.6,72.6c.3,1.6-.1,3.4-2.4,6.6a8,8,0,0,0,5.2.7,15,15,0,0,0,2.1-7.3A7.5,7.5,0,0,1,160.6,72.6Z"/>
      <path class="cls-2" d="M142.5,153.4a7.2,7.2,0,0,1,3.1-2.7c-.5-.6-.7-1-.6-1.4a8.4,8.4,0,0,0-3.7,2.7A3.3,3.3,0,0,0,142.5,153.4Z"/>
      <path class="cls-1" d="M158.5,126.1a1.5,1.5,0,0,0-1.1.4c.1.3.1.5.3.6l1.1-.4A.9.9,0,0,1,158.5,126.1Z"/>
      <path class="cls-3" d="M135.3,143.8a2.8,2.8,0,0,0,1.1-1.5,2.6,2.6,0,0,1-1.6-1,5.3,5.3,0,0,0-1.3,1.3A5.2,5.2,0,0,1,135.3,143.8Z"/>
      <path class="cls-1" d="M7.8,106a17,17,0,0,0,2,6,6.3,6.3,0,0,0,2.7-2.7,6.5,6.5,0,0,1-1.3-3.6A3.7,3.7,0,0,1,7.8,106Z"/>
      <path class="cls-2" d="M149.6,116.7a3.9,3.9,0,0,1-.3-1.4h-.5a3,3,0,0,0,.2,1.6Z"/>
      <path class="cls-1" d="M138.1,57.2a15.9,15.9,0,0,1,6.5-.4,5.5,5.5,0,0,0-.5-3.4,21.7,21.7,0,0,0-6.7.1C138.5,55,138.8,55.9,138.1,57.2Z"/>
      <path class="cls-1" d="M147.5,148a2.5,2.5,0,0,1,.4-.9l-.5-.2a3.6,3.6,0,0,0-.5.9C147.2,147.8,147.3,147.8,147.5,148Z"/>
      <path class="cls-3" d="M120.2,38.7a4,4,0,0,0,.6-2.3,2.2,2.2,0,0,0-1.3-.3,5.5,5.5,0,0,1-.6,2.2A1.2,1.2,0,0,1,120.2,38.7Z"/>
      <path class="cls-4" d="M117.2,156.1c1,.6,2,.5,3.5.3a32.1,32.1,0,0,1,.5-11.4,4.9,4.9,0,0,1-3.3-.7A27.6,27.6,0,0,0,117.2,156.1Z"/>
      <path class="cls-4" d="M48.1,76.9a7.5,7.5,0,0,0,3.2-5.1A41.5,41.5,0,0,1,44,64.6,5.8,5.8,0,0,1,41.8,67,42.6,42.6,0,0,1,48.1,76.9Z"/>
      <path class="cls-3" d="M111.4,167.3a8.1,8.1,0,0,1-2.8,2.7,31,31,0,0,1,6.4,4.5,5.1,5.1,0,0,0,3-2.3A40,40,0,0,0,111.4,167.3Z"/>
      <path class="cls-2" d="M78.4,58.3c2.2,1.3,3.3,2,4.4,3.9a2.7,2.7,0,0,1,1.9-1,10.8,10.8,0,0,0-4.5-4.8A4.7,4.7,0,0,0,78.4,58.3Z"/>
      <path class="cls-1" d="M166.3,100.2c0-.3.1-.4.4-.6a2,2,0,0,0-1.1-.3.6.6,0,0,0-.3.6A1.7,1.7,0,0,1,166.3,100.2Z"/>
      <path class="cls-2" d="M161,117.2a.9.9,0,0,0,.8.4,1,1,0,0,0,.4-.8,2,2,0,0,1-.6-.9A7.5,7.5,0,0,1,161,117.2Z"/>
      <path class="cls-4" d="M91.2,164.3a3.9,3.9,0,0,1-3.3-.8,31.7,31.7,0,0,0-1.7,9.5,7,7,0,0,0,4.1,1C89.7,170.3,90.2,167.9,91.2,164.3Z"/>
      <path class="cls-2" d="M53.9,47.5a1.5,1.5,0,0,1-.9-.7,6.8,6.8,0,0,0-.7,1.7,1.7,1.7,0,0,0,1,.3A3.6,3.6,0,0,1,53.9,47.5Z"/>
      <path class="cls-4" d="M37.4,115.2a2.2,2.2,0,0,1,.9-1.4,13.6,13.6,0,0,0-4.1-2.2,3.9,3.9,0,0,0-1.1,1.7A9.3,9.3,0,0,1,37.4,115.2Z"/>
      <path class="cls-6" d="M101.4,163.6a3,3,0,0,1-1.4-1.3c-.3.2-.4.3-.7.3a4.3,4.3,0,0,0,1.4,1.6A1.3,1.3,0,0,0,101.4,163.6Z"/>
      <path class="cls-4" d="M69.2,159a2.8,2.8,0,0,1-.4,1.8,11.1,11.1,0,0,0,2.9-.2,3.4,3.4,0,0,0-.3-1.7A4.9,4.9,0,0,1,69.2,159Z"/>
      <path class="cls-7" d="M33.1,81.7c-.8-.8-1.7-1-3.3-1a13.5,13.5,0,0,1-1.7,6,4.9,4.9,0,0,1,3.2,1.4A16.9,16.9,0,0,0,33.1,81.7Z"/>
      <path class="cls-4" d="M114,167.7a5.9,5.9,0,0,0,.6-4.7,32.7,32.7,0,0,1-7.6-2.7,4.5,4.5,0,0,1-.8,2.4A32.3,32.3,0,0,1,114,167.7Z"/>
      <path class="cls-2" d="M92.3,172.3a1.4,1.4,0,0,1,.6.7,8.4,8.4,0,0,0,2-1.8,2.5,2.5,0,0,0-.7-.9A7.3,7.3,0,0,1,92.3,172.3Z"/>
      <path class="cls-1" d="M42.2,151a1,1,0,0,0,.3-.8l-1.3-1-.3.5A5.3,5.3,0,0,1,42.2,151Z"/>
      <path class="cls-3" d="M130.7,61.3a24.7,24.7,0,0,0,1.6,8.5,9.6,9.6,0,0,0,4.2-3.1c-1-1.5-1.1-3-1-5.2A5.7,5.7,0,0,1,130.7,61.3Z"/>
      <path class="cls-3" d="M88.1,178.3a3.5,3.5,0,0,0-1.9,3.2,5.5,5.5,0,0,0,3.1,1.9,9.1,9.1,0,0,1,4.1-2.4A16.6,16.6,0,0,1,88.1,178.3Z"/>
      <path class="cls-4" d="M159.8,114.9a2.3,2.3,0,0,0,1.5,1.2,17.4,17.4,0,0,1,3.6-5,2.5,2.5,0,0,1-1.2-1.3A13.9,13.9,0,0,0,159.8,114.9Z"/>
      <path class="cls-1" d="M148.6,72.6a4.4,4.4,0,0,1-3.3,1.1,20.6,20.6,0,0,0,3.2,4.6,8.3,8.3,0,0,0,2.6-2.1C150.1,75.5,149.6,74.4,148.6,72.6Z"/>
      <path class="cls-3" d="M105.7,57.3c-.9-2.5-1.2-3.9-.8-6.1a2.8,2.8,0,0,1-2.2-.5,12.2,12.2,0,0,0,.3,6.8A4.8,4.8,0,0,0,105.7,57.3Z"/>
      <path class="cls-3" d="M82.2,49.4A6,6,0,0,1,85,51.3c.4-.4.7-.7,1.1-.7a7.3,7.3,0,0,0-3-2.4A4.7,4.7,0,0,0,82.2,49.4Z"/>
      <path class="cls-2" d="M122.6,57.2c-.1-1.2-.7-2-2-3.1a15.6,15.6,0,0,1-5.5,3.8,5.5,5.5,0,0,1,1.7,3.4A17.6,17.6,0,0,0,122.6,57.2Z"/>
      <path class="cls-4" d="M22.6,111.2c-1,.6-1.3,1.5-1.5,3.1a14,14,0,0,1,5.8,2.6c.2-1.1.7-1.8,1.9-3.1A14.9,14.9,0,0,0,22.6,111.2Z"/>
      <path class="cls-1" d="M155.1,96.5a4,4,0,0,1,4.2,1.1c.6-2.1.4-3.6,0-6.3-1.2-1-2.1-1.1-3.8-.8C155.8,92.9,155.9,94.6,155.1,96.5Z"/>
      <path class="cls-8" d="M42,52.4c.2.3.3.5.7.6l1.3-.9-.3-.4A5.1,5.1,0,0,1,42,52.4Z"/>
      <path class="cls-9" d="M93.1,38.3a5.4,5.4,0,0,0-1.5,4.3,37.9,37.9,0,0,1,6.7,4.2,5.1,5.1,0,0,1,1.3-2.2A29.9,29.9,0,0,1,93.1,38.3Z"/>
      <path class="cls-4" d="M137.2,50.6c1.2-1.5,2.9-2.5,7.5-3.3a9.5,9.5,0,0,0-3.7-4.9,17.1,17.1,0,0,0-7.7,4.2C135.1,47.5,135.9,48.5,137.2,50.6Z"/>
      <path class="cls-2" d="M144.7,159c0-.2-.1-.3-.2-.5a4.7,4.7,0,0,1-1.9.6.6.6,0,0,1,.1.6A4.8,4.8,0,0,0,144.7,159Z"/>
      <path class="cls-2" d="M58,174a16.6,16.6,0,0,0,.7,5.6,8.6,8.6,0,0,0,2.9-1.9,5.2,5.2,0,0,1-.6-3.4A3.2,3.2,0,0,1,58,174Z"/>
      <path class="cls-4" d="M36.9,143.2c.3.3.5.5.9.5s.5-.5.5-.8a2.9,2.9,0,0,1-.6-1.1A5,5,0,0,1,36.9,143.2Z"/>
      <path class="cls-10" d="M41.5,100a1.4,1.4,0,0,1,.6,1.3,4.2,4.2,0,0,0,1.6-1.4,1.3,1.3,0,0,0-.6-1.2A4.8,4.8,0,0,1,41.5,100Z"/>
      <path class="cls-3" d="M82.9,29.1h.4a5,5,0,0,0,.4-1.3,1,1,0,0,0-.6-.2A2.2,2.2,0,0,1,82.9,29.1Z"/>
      <path class="cls-2" d="M138.6,125.2c.7,1.2.9,2.7.1,5.9a7.9,7.9,0,0,0,4.3-1,13.3,13.3,0,0,0-.6-6.3A6.2,6.2,0,0,1,138.6,125.2Z"/>
      <path class="cls-2" d="M70.3,43.2c-1,1.1-2.4,1.8-5.8,2.1A7.7,7.7,0,0,0,67,49.2a12.8,12.8,0,0,0,6-2.8A6.7,6.7,0,0,1,70.3,43.2Z"/>
      <path class="cls-2" d="M66,59.6l-1.2.4.3.6a2.4,2.4,0,0,0,1.3-.4A.7.7,0,0,1,66,59.6Z"/>
      <path class="cls-3" d="M136.8,163.1a4.9,4.9,0,0,0-4.3-1.9c-1.2,1.6-1.9,2.8-1.9,4.3,1.7,1.2,2.5,2.4,3.7,4.7A18.3,18.3,0,0,1,136.8,163.1Z"/>
      <path class="cls-11" d="M153.4,158a3.1,3.1,0,0,1-2.2-1.3,24.6,24.6,0,0,0-3.2,6.5,4.9,4.9,0,0,0,2.7,1.6A15,15,0,0,1,153.4,158Z"/>
      <path class="cls-3" d="M33.9,130.3a5.5,5.5,0,0,1-4.9-2.7c-1.3,2.5-1.6,4.4-1.8,7.9,1.2,1.6,2.3,2,4.5,2.1C31.9,134.5,32.3,132.4,33.9,130.3Z"/>
      <path class="cls-4" d="M57.8,149.6c-1.3-1-2.7-1.1-4.9-.8a18.4,18.4,0,0,1-1.3,8.8c1.6-.2,2.8.3,4.9,1.5A25.2,25.2,0,0,0,57.8,149.6Z"/>
      <path class="cls-2" d="M127.6,56.5c.3.1.6-.1.9-.3a7.6,7.6,0,0,1-1-2.9,1.4,1.4,0,0,1-.9.1A6.7,6.7,0,0,0,127.6,56.5Z"/>
      <path class="cls-3" d="M77.2,160.8a4.9,4.9,0,0,0,4.7-1.3,7.2,7.2,0,0,0-1.4-4.6c-2.1.2-3.5-.2-5.9-1.2A17.4,17.4,0,0,1,77.2,160.8Z"/>
      <path class="cls-3" d="M28.8,100.6c.2.2.3.6.2,1.5l1-.4a2.7,2.7,0,0,0-.3-1.6C29.5,100.4,29.2,100.4,28.8,100.6Z"/>
    </g>
    <g>
      <polygon class="cls-12" points="47.9 41.4 39.4 27.1 37.2 29.2 47.9 41.4"/>
      <polygon class="cls-12" points="138.6 155.9 151.7 189.9 156.1 186.1 138.6 155.9"/>
      <polygon class="cls-12" points="126.2 29.9 136.2 1.5 131.6 0 126.2 29.9"/>
      <polygon class="cls-12" points="157.9 141.8 189.7 170.5 192.3 164.2 157.9 141.8"/>
      <polygon class="cls-12" points="24 119.2 9.1 120 9.9 122.6 24 119.2"/>
      <polygon class="cls-12" points="47.9 158.7 40.5 174.7 45 172.8 47.9 158.7"/>
      <path class="cls-12" d="M76.9,37.2c0-.3-8.1-23.5-8.1-23.5l-6-4Z"/>
      <polygon class="cls-12" points="9.2 65.2 37.3 74 0 57.2 9.2 65.2"/>
      <polygon class="cls-12" points="146.4 61.5 184.9 41.5 179.7 35.4 146.4 61.5"/>
      <polygon class="cls-12" points="100.4 195.2 97.5 162.4 95.4 203.7 100.4 195.2"/>
      <polygon class="cls-12" points="180.7 113.4 202.7 116.7 203.2 113 180.7 113.4"/>
      <polygon class="cls-12" points="161.3 82 178.8 80.1 177.7 77.1 161.3 82"/>
    </g>
    <g>
      <g>
        <path class="cls-12" d="M62,86.3h.6L64,86c.1-.8.1-1.6.2-2.4V78.8c-.1-.8-.1-1.7-.2-2.5a14.1,14.1,0,0,1-.1-2.2c0-.9-.1-1.7-.1-2.5s-.1-1.8-.2-2.8h.2c.1-.2.4-.2.7-.2h1.9c.3,0,.5.3.7.9a9,9,0,0,1,.5,2.2,23.6,23.6,0,0,1,.3,2.9v2.5c0,.4.1.8.1,1.1v3.4a14.8,14.8,0,0,1-.1,2.1v1.3l3.8-.8,4.4-.8a18.5,18.5,0,0,0,.1-2.3,18.5,18.5,0,0,0,.1-2.3V76.6a16.2,16.2,0,0,1-.1-2.2,7.1,7.1,0,0,1-.1-1.5c0-.6-.1-1.2-.1-1.7s-.1-1.1-.1-1.5v-.6h1.2c.2,0,.3.2.5.4a3.7,3.7,0,0,1,.1,1.1,6.2,6.2,0,0,1,.1,1.3,14.8,14.8,0,0,0,.1,2.1c.1.8.1,1.5.2,2.2s.1,2.3.1,3.5.1,2.3.1,3.4a6.2,6.2,0,0,1,2.3-.1v.2c.1.1.1.2.1.4v.5l-1.2.3-1.2.2v3.2a12.1,12.1,0,0,0,.1,1.9c0,.7.1,1.4.1,2s.1,1.1.1,1.5.1.6,0,.6a2.8,2.8,0,0,1-1.7.2.5.5,0,0,1-.5-.5,5.7,5.7,0,0,1,.1-1.2,8.5,8.5,0,0,0,0-1.6,24.5,24.5,0,0,1-.2-2.7,21.1,21.1,0,0,1-.2-2.6v-.6h-.7a18,18,0,0,0-3.8.7,21.1,21.1,0,0,0-3.8,1.2v2.8a9,9,0,0,0,0,1.7v4.3a8.5,8.5,0,0,0,0,1.6,1,1,0,0,0,.1.4v.4l-.8.2a4.8,4.8,0,0,1-1.2,0,3.3,3.3,0,0,1-1.2-.5c-.4-.2-.6-.4-.6-.8A9.7,9.7,0,0,1,64,95a12.8,12.8,0,0,0,.1-1.9V90.8a17.6,17.6,0,0,0,0-2.3c0-.1-.1-.2-.1-.4v-.5l-1.7.8-1.8.5c0-.1-.1-.1-.2-.1H58.7l-.4-.4-.2-.3c0-.2,0-.3.1-.3l.8-.4,1.3-.3,1.2-.4Z"/>
        <path class="cls-12" d="M96.5,85.5l.5.2.4.3c.2.1.2.2.2.4l-.2.6a.9.9,0,0,0-.3.5,7.7,7.7,0,0,0-.7,1.6,7.9,7.9,0,0,1-.8,1.6l-.7,1.1a3.8,3.8,0,0,1-.9.9.9.9,0,0,1-.7.3h-.8a2.3,2.3,0,0,1-1.6-1.1A13.5,13.5,0,0,1,89.8,89c0-.1,0-.2-.1-.2v-.3l-1,.7-.9.8-1.2,1.2a5.2,5.2,0,0,1-1.9,1.2h-1a2.1,2.1,0,0,1-1-.4l-.9-.9a3.1,3.1,0,0,1-.6-1.3,5.3,5.3,0,0,1-.1-1.2,5.2,5.2,0,0,1,.8-2.4l1.1-1.5,1.4-1.2a1.1,1.1,0,0,1,.7-.3l.9-.2h.9l1,.2.7.3.5.5a2.1,2.1,0,0,1,.4.6V85l-.3.3-.2.2h-.1a.5.5,0,0,1-.4-.2l-.3-.3-.5-.2a1.8,1.8,0,0,0-1.3.2l-.5.5-.4.6-.2.3h-.3a2.4,2.4,0,0,0-.6,1.1L84,89.2c-.1.1,0,.2,0,.4h.3l4-2.8.2-.3.3-.2a1,1,0,0,0,.5-.4l.5-.5v-.4a5.6,5.6,0,0,0,.5-.8c.1-.3.3-.5.4-.8l.2-.2a1.4,1.4,0,0,1,1.4.1.9.9,0,0,1,.6.6,3.8,3.8,0,0,1-.1,1,7,7,0,0,0-.5,2.5,11.8,11.8,0,0,0,.2,2.6v.7a.9.9,0,0,0,.3.7h.2a.1.1,0,0,1,.1-.1,14.1,14.1,0,0,0,1.4-1.8,19.8,19.8,0,0,0,1.1-2A17.1,17.1,0,0,0,96.5,85.5Z"/>
        <path class="cls-12" d="M110.9,85.7a.6.6,0,0,1,.3,1l-.4.5h-1.4l-.9.2-.7.2-.8.2a2,2,0,0,0-1.1.3l-1.2.4a1.8,1.8,0,0,1-1.2.2,2.3,2.3,0,0,1-.9-.8.9.9,0,0,1-.1-.5V87l1.1-.2a1.9,1.9,0,0,0,1.3-.7,5,5,0,0,0,1.3-2.2,6.5,6.5,0,0,0,.4-1.3,6.5,6.5,0,0,0,.4-1.3,1.4,1.4,0,0,0,.1-1.1,2.5,2.5,0,0,0-2.2.5l-.8.8a4.1,4.1,0,0,0-.5.9,6.9,6.9,0,0,0-.4,1l-.3.8-.3.7c0,.2-.1.3-.1.5s-.1.2-.1.4a6.4,6.4,0,0,0-.6,1.8l-.3,2c-.1.4-.1.8-.2,1.2v1.1c0,.2-.1.4,0,.6v1.2l.3,1.4c.1.4.1.9.2,1.3V98c0,.2-.1.4-.3.4h-.3l-.3.2-.7.2-.9.3h-.8c-.3-.1-.5-.1-.7-.3a3.2,3.2,0,0,1-.5-1.3c0-.5-.1-1-.1-1.5v-.3h-.1c0-.2-.1-.3-.1-.5V94.2c-.1-.1-.1-.1,0-.2l-.3-3.9c-.1-1.3-.3-2.6-.5-3.9V84.6a8.6,8.6,0,0,0,.1-1.6,1.2,1.2,0,0,1,.5-.5h.7a.8.8,0,0,1,.8.1,1.9,1.9,0,0,1,1.4,2.1v.8c.1.2,0,.5,0,.7v.8a.9.9,0,0,0,0,.7l.4-1c.1-.3.1-.7.2-1a8.6,8.6,0,0,1,.6-2.3,8.5,8.5,0,0,1,.9-2.2,4,4,0,0,1,1.1-1.4,5.1,5.1,0,0,1,1.6-.9l1.4-.3a3.2,3.2,0,0,1,1.4-.1l.9.2a1.7,1.7,0,0,1,1.2,1.8,2.7,2.7,0,0,1-.2,1.3,13.3,13.3,0,0,1-.5,1.9,11.3,11.3,0,0,1-.9,2l1.2-.2a1.4,1.4,0,0,1,.9,0A1.1,1.1,0,0,1,110.9,85.7Z"/>
        <path class="cls-12" d="M125.1,85.7c.4.3.5.6.2,1l-.4.5h-1.4l-.8.2-.7.2-.8.2a2.7,2.7,0,0,0-1.2.3l-1.1.4a1.9,1.9,0,0,1-1.2.2,1.8,1.8,0,0,1-.9-.8.9.9,0,0,1-.1-.5V87l1.1-.2a1.9,1.9,0,0,0,1.3-.7,5,5,0,0,0,1.3-2.2,6.5,6.5,0,0,0,.4-1.3l.4-1.3a1.4,1.4,0,0,0,.1-1.1,2.5,2.5,0,0,0-2.2.5l-.8.8a4.1,4.1,0,0,0-.5.9,6.9,6.9,0,0,0-.4,1,1.1,1.1,0,0,0-.3.8l-.3.7a.9.9,0,0,0-.1.5c0,.1-.1.2-.1.4a6.4,6.4,0,0,0-.6,1.8c-.1.7-.3,1.3-.4,2s-.1.8-.1,1.2v1.1a1.3,1.3,0,0,0-.1.6,1.3,1.3,0,0,1,.1.6v.6l.3,1.4a5.9,5.9,0,0,0,.2,1.3V98c0,.2-.1.4-.3.4h-.3l-.3.2-.7.2-.9.3h-.9c-.2-.1-.5-.1-.6-.3a3.2,3.2,0,0,1-.5-1.3c0-.5-.1-1-.1-1.5v-.3h0a.9.9,0,0,1-.1-.5v-.8a.4.4,0,0,1-.1-.3V94a25.6,25.6,0,0,0-.3-3.9c-.1-1.3-.2-2.6-.4-3.9V84.6c0-.5.1-1.1.1-1.6a.8.8,0,0,1,.5-.5h.7a.8.8,0,0,1,.8.1,2,2,0,0,1,1.4,2.1v2.3a.9.9,0,0,0,0,.7l.4-1a3.6,3.6,0,0,1,.2-1,15.5,15.5,0,0,1,.5-2.3,14.7,14.7,0,0,1,1-2.2,3.1,3.1,0,0,1,1.1-1.4,6,6,0,0,1,1.5-.9l1.4-.3a3.4,3.4,0,0,1,1.4-.1l1,.2a1.7,1.7,0,0,1,1.2,1.8,5.1,5.1,0,0,1-.2,1.3,13.3,13.3,0,0,1-.5,1.9c-.3.6-.5,1.3-.9,2l1.2-.2a1.4,1.4,0,0,1,.9,0A1.3,1.3,0,0,1,125.1,85.7Z"/>
        <path class="cls-12" d="M139.9,85.4l.8,1c-.1.1-.1.2-.3.2a1.5,1.5,0,0,1-.6,1h-.1l-1.8,1.6L136.2,91c.1,1.4.2,2.7.2,4a28.1,28.1,0,0,1-.1,4.1c-.1.6-.1,1.2-.2,1.8v2.2a.4.4,0,0,1-.1.3,2.9,2.9,0,0,0-.2.9,3.1,3.1,0,0,1-.1,1v1.3c0,.3-.1.7-.1,1l-.3,1.1a6.3,6.3,0,0,1-.8,2.3,7.4,7.4,0,0,1-1.3,2.1,8.5,8.5,0,0,1-1.7,1.6l-2,.9a4.6,4.6,0,0,1-3.1-.1H126a3.7,3.7,0,0,1-2.1-2.8l-.2-.4c0-.3-.1-.5-.1-.8a1.5,1.5,0,0,1-.1-.7,6.5,6.5,0,0,1-.1-3.1,17.6,17.6,0,0,1,1-3,8.9,8.9,0,0,1,.8-1.7,9.5,9.5,0,0,1,1-1.7h0l1.3-2.2,1-1.7,1.2-1.6.3-.5a10.5,10.5,0,0,1,.8-1.1l.8-1,.2-.2V88.1a4.3,4.3,0,0,0-.1-.5v-.7l-.5.6-.4.4-.4.5-.6.5-.6.4-.9.4a1.6,1.6,0,0,1-1.2.1h-.4l-.4-.2a1.9,1.9,0,0,1-1-1.3,19.8,19.8,0,0,1-.7-4V82a.9.9,0,0,1,.1-.5,1,1,0,0,1,.5-.8,1.9,1.9,0,0,1,1.4-.3,1.1,1.1,0,0,1,.9.9,2,2,0,0,1,.1.7,2.2,2.2,0,0,1,.1.8c0,.6.1,1.2.1,1.9s.1,1.3.2,2a.6.6,0,0,0,.1.4c0,.2.1.3.3.4h.6a1.8,1.8,0,0,0,.9-.7,7.1,7.1,0,0,1,1-1.4,5.1,5.1,0,0,0,.9-1.8l.3-.9.3-.8a2.4,2.4,0,0,1,.2-.9l.4-.9.7-.2h.6a1.7,1.7,0,0,1,1.3,1l.2.5a1.1,1.1,0,0,0-.3.7V83a11.3,11.3,0,0,0,0,2.6l.3,2.5c0,.1.1.1.2.2s.2,0,.3-.1l.2-.2Zm-14.6,22.7a8.3,8.3,0,0,0-.1,2.2v2.1l.5,1.1a1.2,1.2,0,0,0,1.3.7l1-.2a2.1,2.1,0,0,0,1-.6l1.5-2,.3-.9c0-.3.1-.6.1-.9a2.9,2.9,0,0,0,.2-.9c.1-.3.1-.5.2-.8a2.8,2.8,0,0,1,.1-.9,7.7,7.7,0,0,0,.2-1.5c.1-.5.1-1,.2-1.6v-1.2l.2-2v-1c0-.3.1-.7.1-1v-.9a2.8,2.8,0,0,0-.1-.9,4.3,4.3,0,0,0-.1-.5v-.6l-.9,1-2.6,3.8a24.9,24.9,0,0,0-2.2,4.3,9.8,9.8,0,0,0-.5,1.6A9.4,9.4,0,0,1,125.3,108.1Z"/>
      </g>
      <g>
        <path class="cls-12" d="M45.1,108.6v-.3a1.1,1.1,0,0,1,.1-.5c0-.2.1-.3.2-.5a.5.5,0,0,1,.4-.3h1.3c.9-.3,1.4.6,1.5,2.8l1.5-1.4a7.6,7.6,0,0,1,1.9-1.2,4.1,4.1,0,0,1,2.2-.3,4,4,0,0,1,2.4.9,3,3,0,0,1,1,2.1c0,.4.1.8.1,1.2a2.1,2.1,0,0,1-.2,1.3l-.3,1.5a5.3,5.3,0,0,1-.5,1.5l-1.1,1.6-1.3,1.4-1.2,1.2-1,.9c0,.1,0,0,.1,0l.2-.2a9.1,9.1,0,0,1,1.6-1.1l1.8-.8a3,3,0,0,1,1.6-.1,3.4,3.4,0,0,1,1.4.5A5.7,5.7,0,0,1,60,120a4.6,4.6,0,0,1,.9,1.5,10.9,10.9,0,0,1,.7,2.4,7.1,7.1,0,0,1,.1,2.5c0,.2-.1.4-.1.6a1.4,1.4,0,0,0-.2.6c-.1.3-.1.5-.2.6l-.2.6a9.1,9.1,0,0,0-.7,1.4,7.4,7.4,0,0,1-.8,1.3,1.2,1.2,0,0,1-.5.5l-.5.5-.8.7c-.3.3-.5.6-.8.7a3.1,3.1,0,0,1-1.3.6l-1.3.4-1.5.2a2.3,2.3,0,0,1-1.4-.4A6.2,6.2,0,0,1,49,133l-.2,1.5a2.1,2.1,0,0,1-.6,1L47,136a2.5,2.5,0,0,1-1.2.1c-.4,0-.6-.1-.6-.4a8.8,8.8,0,0,1-.3-2.4,19.3,19.3,0,0,1,.1-2.4,22.9,22.9,0,0,0,.2-2.5V115c0-1-.1-2-.1-3v-3.4Zm3.8,5.4a18.5,18.5,0,0,1,.1,2.3c0,.8.1,1.6.1,2.4a3.1,3.1,0,0,1,.1,1v.9c0,1,0,2-.1,3v5.9a18.6,18.6,0,0,1,1.3-2.3,15.6,15.6,0,0,1,1.6-2l1.8-1.5,1.8-1.3,1.3-.9,1.1-.7.3-.2h-.1a2.2,2.2,0,0,0-1.4-.6,2.7,2.7,0,0,0-1.2.3l-1.2.8-1.1.6a1.4,1.4,0,0,1-1.1-.1,4.6,4.6,0,0,1-1.3-1.2l-.4-.6a.9.9,0,0,1-.3-.6,1.8,1.8,0,0,1,.2-1,3.4,3.4,0,0,1,.6-1.2l.9-1.2,1.1-1.4,1.2-1.5a14,14,0,0,0,1-1.6,1.9,1.9,0,0,0,.4-1.3,2.7,2.7,0,0,0-.5-1.3.6.6,0,0,0-.6-.3h-.8l-.9.2-.6.3-.9.7-.7.8a1.3,1.3,0,0,0-.5.6l-.4.5v.4l-.3.5-.3.5v.3a.2.2,0,0,1,0,.3v.6Zm8.8,8.8-1,.7-1,.8a8.8,8.8,0,0,0-1.7,1.6l-1.3,1.6c-.2.1-.3.3-.5.5a3.5,3.5,0,0,1-.5.8l-.5.7-.3.6a1.6,1.6,0,0,0-.3.6l-.3.7a1.7,1.7,0,0,0-.1.7c0,.2.2.4.5.5h.7a3.2,3.2,0,0,0,1.3-.2l1.5-.6a5.8,5.8,0,0,0,1.5-1.3l1.5-2a11.3,11.3,0,0,0,1.2-2.1l.4-.9a5.9,5.9,0,0,0,.4-.8,8.8,8.8,0,0,0,.2-1.6,6.8,6.8,0,0,0-.2-1.4h0l-.7.4Z"/>
        <path class="cls-12" d="M71.7,124q.1-.3.3-.3c.2-.1.3,0,.4,0a.5.5,0,0,1,.3.4.6.6,0,0,1,0,.6l-.4,1.2-.6,1.2a3.6,3.6,0,0,1-.5.9h-.1v.2h0l-.5.8-.3.4-.3.4a1.4,1.4,0,0,1-1.3.5H67.2a2.2,2.2,0,0,1-1.5-1,7.4,7.4,0,0,1-1.4-3.4,15.1,15.1,0,0,1-.1-3,9.8,9.8,0,0,1,.3-2.6,3.6,3.6,0,0,1,.4-.9,1.1,1.1,0,0,1,.9-.5h2.3l.3.3v.2h0v.2c0,.3-.1.5-.1.7a1.3,1.3,0,0,0-.1.6,10.4,10.4,0,0,1-.2,1.5,11.5,11.5,0,0,0-.1,1.8v1.2a4.9,4.9,0,0,0,.1,1.2v.9a1.5,1.5,0,0,0,.1.7c.1.2.2.3.4.3a2.1,2.1,0,0,0,.9-.5v-.2l1.1-1.5.6-1.5A11.2,11.2,0,0,0,71.7,124Zm-5.6-5.7c-.3-.1-.4-.2-.4-.6l-.2-.9a5,5,0,0,1,1.3-2.6c.1-.2.3-.3.7-.4l1.4-.2h.8l.6.3c.3.2.4.4.2.6l-.2.3-.3.3-1.1.9-.9,1-.5.6-.6.5Z"/>
        <path class="cls-12" d="M79.8,121.1a3.1,3.1,0,0,0-1.2-.5l-1.2-.3-1.2-.4-1.1-.4a5.6,5.6,0,0,0-.5.8c-.2.4-.3.9-.5,1.3s-.3,1-.5,1.4l-.4,1-.3.7c-.1.3-.3.4-.5.3s-.6-.8-.4-1.8a3.1,3.1,0,0,0,.2-.7,11.2,11.2,0,0,1,.5-1.3,5.6,5.6,0,0,1,.4-1.2c.1-.4.2-.6.2-.7a.4.4,0,0,0,.1-.3c.1,0,.1-.2.2-.3a.2.2,0,0,1-.2-.2v-.2l-.5-.5-.4-.6a4.6,4.6,0,0,1-.5-4.4,2.4,2.4,0,0,1,1.3-1.3l1.2-.2a2.8,2.8,0,0,1,1.3.3,2.2,2.2,0,0,1,1,.9,3.2,3.2,0,0,1,.3,1.4,4.2,4.2,0,0,1-.1,1.6,12.1,12.1,0,0,1-.5,1.4l-.4.9.2.3c.1,0,.2,0,.2.1a15.6,15.6,0,0,0,3.7,1,7.6,7.6,0,0,1,2,.6,3.6,3.6,0,0,1,1.5,1.2,6.8,6.8,0,0,1,.8,1.9v.5l-.2.5a10.9,10.9,0,0,1-.5,1.7,12.1,12.1,0,0,1-.5,1.8,6.8,6.8,0,0,0-.2,1.4,6.1,6.1,0,0,0-.1,1.4v.7a1.7,1.7,0,0,0,.1.7,1,1,0,0,0,.4.5l.7.2a1.1,1.1,0,0,0,.7-.3,10.3,10.3,0,0,0,2.3-2.7l.6-1.1a5,5,0,0,0,.4-1.3v-.3h.4l.5.2a4.9,4.9,0,0,1-.1,1.2,2,2,0,0,1-.3,1.1l-.8,1.6a6.9,6.9,0,0,1-1.1,1.3,6.3,6.3,0,0,1-1.8,1.2,3.6,3.6,0,0,1-2.1.3h-.5a2.3,2.3,0,0,1-1.4-.4,3.5,3.5,0,0,1-1.1-1,4.1,4.1,0,0,1-.5-.9l-.3-.9a10.6,10.6,0,0,1-.4-1.9v-1.9a8.3,8.3,0,0,1,.3-2.2l.6-2.2Zm-5.2-4.2a3,3,0,0,0,.4-1.1,4.3,4.3,0,0,0,.2-1.1,1.6,1.6,0,0,0-.7-1.5c-.4-.3-.7-.1-.8.3a2.2,2.2,0,0,0-.1.8,5.9,5.9,0,0,0,.2,1.4Z"/>
        <path class="cls-12" d="M103,109.8a.7.7,0,0,1,.6.3,1.4,1.4,0,0,1,.2.7,1.4,1.4,0,0,1-.2.6.7.7,0,0,1-.6.3H99.1l-.8.2H92.6a.5.5,0,0,0-.3.5,2.8,2.8,0,0,1-.1.9v1a6.6,6.6,0,0,1-.1,1.4,7.6,7.6,0,0,1-.1,1.5c0,.4-.1.8-.1,1.2a5.3,5.3,0,0,1,.1,1.3v.8a25.5,25.5,0,0,0-.2,3.9c0,1.2,0,2.5.1,3.9a2.5,2.5,0,0,0,.1.8c0,.3.1.6.1.9l.6,1.5a2.3,2.3,0,0,0,1,1.2l.2.3a.7.7,0,0,0,.5-.4,3,3,0,0,1,.4-.8l.3-.8c.4-1,.7-2,1.1-3.1a28.3,28.3,0,0,0,1.1-3.1,1.3,1.3,0,0,0,.1-.6l.2-.6h.2v-.2a.8.8,0,0,1,.7.3c.2.2.4.3.5.5a2.8,2.8,0,0,0-.1.9l-.3.8-.3,1.1-.3,1-.6,1.9-.3,1.2-.4,1.2a5.4,5.4,0,0,1-.7,1.3l-1,.9h-.4a4.2,4.2,0,0,1-4.5-2.1,10.8,10.8,0,0,1-1.3-2.9,11.6,11.6,0,0,1-.7-3.1,18.4,18.4,0,0,1-.3-3.3l-.2-3.3v-.9a2.7,2.7,0,0,0,0-.9c0-.1.1-.1.1-.2v-5.8H85.8l-2.3.4a5.4,5.4,0,0,1-2.2-.1.8.8,0,0,1-.5-.5,1.5,1.5,0,0,1-.1-.7,1,1,0,0,1,.4-.5c.1-.2.3-.2.6-.1h1.8l1.7-.4H88l.8-3.7.2-.7a1.6,1.6,0,0,1,.3-.6.7.7,0,0,1,.6-.1l.7.2.6.2.6.2a.9.9,0,0,1,.6.4,1.5,1.5,0,0,1,.2.8v1.8c0,.3-.1.5-.1.7v.6H103Z"/>
        <path class="cls-12" d="M115.7,123.4a.9.9,0,0,1,.3.6c.1.2.1.4-.1.5a11.9,11.9,0,0,0-.9,1.5l-.9,1.6-.2.3-.7.9a9.3,9.3,0,0,0-.5,1,4.1,4.1,0,0,1-.7,1.1l-.8.7-1.1.3a2.5,2.5,0,0,1-1.1-.4,2.4,2.4,0,0,1-1-1,9,9,0,0,1-.8-2.1,7.4,7.4,0,0,1-.1-2.1l.4-3.1c0-.5.1-.9.1-1.3s.1-.8.1-1.2v-.8a1.2,1.2,0,0,0-.8-.1,5.2,5.2,0,0,0-1.7,1.6,24.3,24.3,0,0,1-1.4,2l-.2.4a2.1,2.1,0,0,1-.4.6l-1.2,3.1a15.5,15.5,0,0,0-.7,2.3,8.1,8.1,0,0,1-.7,2.2,2.4,2.4,0,0,1-1.2.1,2.1,2.1,0,0,1-1.2-.5,2.3,2.3,0,0,1-.6-1.2,5.9,5.9,0,0,1-.2-1.3,2.5,2.5,0,0,1,.1-1.2,2.2,2.2,0,0,0,0-.8,10.3,10.3,0,0,1-.1-1.7,4.8,4.8,0,0,0,0-1.7,5.3,5.3,0,0,1,.1-1.3V114a2.8,2.8,0,0,0,.1-.9l.2-5.6v-.6a2,2,0,0,0,.1-.7c.1-.3.2-.5.5-.5h.1c0-.1,0-.1.1-.1l.4-.2h1.9l.6.2a.5.5,0,0,1,.2.4,5.4,5.4,0,0,1,.3,1V109a11,11,0,0,1-.2,1.8,2.2,2.2,0,0,0,0,.8v.8a5.4,5.4,0,0,1,0,1.8v1.9c0,.1-.1.2-.1.3a4.3,4.3,0,0,1,0,1.6v1.5a7.6,7.6,0,0,0-.1,1.5,7.7,7.7,0,0,1-.2,1.5,7.7,7.7,0,0,0-.2,1.5,7.6,7.6,0,0,0,.1,1.5.5.5,0,0,0,.2-.4l.2-.4a14.1,14.1,0,0,1,2.5-4.5,6.8,6.8,0,0,1,3.9-2.8,1.8,1.8,0,0,1,1-.2,1.8,1.8,0,0,1,.9.7l.3.3.3.3.5.6a1.1,1.1,0,0,1,.3.8,7,7,0,0,1,.1,2,.4.4,0,0,0,0,.5v.5l-.3,2.8a.4.4,0,0,0-.1.3l-.2,2.4v.5h0c.2.2.3.2.5.1a5.2,5.2,0,0,0,1-1.1c.2-.5.5-.9.7-1.3l1.5-2.6.7-.3h.3Z"/>
        <path class="cls-12" d="M125.7,129.3h0a22.6,22.6,0,0,1,.1,3,.8.8,0,0,1-.2.6l-.5.2h-1.2a3.2,3.2,0,0,1-1.3-.5,2,2,0,0,1-.6-1.4l-.3-1.7c-.1-.6-.1-1.2-.2-1.7a2.8,2.8,0,0,1-.1-.9,3.3,3.3,0,0,0,0-1h0l-.4.2-.7.6-.8.4-.8.5-.8.5-.6.2-.5.2a1.9,1.9,0,0,1-1.3-.1,3.1,3.1,0,0,1-1.1-.9,1.3,1.3,0,0,1-.4-.9v-.4c0-.2.1-.3.1-.5a11.8,11.8,0,0,1,.7-2,5.2,5.2,0,0,1,1.2-1.7l1-.9,1-.7,1.2-.2h.9l.9.2h.5v-2.7h.2V116c0-.3.1-.6.1-.8v-.9a1.3,1.3,0,0,1,.1-.6,1.3,1.3,0,0,0-.1-.6l.3-4.3.3-2.7a20,20,0,0,1,.5-2.6c.2-.8.6-1.2,1.3-1.2h1a.9.9,0,0,1,.6,1v.2h0c0,.7-.1,1.5-.1,2.2s-.1,1.4-.1,2.1a2.8,2.8,0,0,0,0,1.3v1.2a7.6,7.6,0,0,0,.1,1.5v2.4a4.5,4.5,0,0,0-.1,1.1c0,.4.1.7.1,1.1s-.2.4-.2.6v.8a1.7,1.7,0,0,0,.1.7v.7c0,.5-.1,1.1-.1,1.7a10.3,10.3,0,0,0,.1,1.7v5.5h0v.9Zm-5.3-5.1a.8.8,0,0,0,.1-.8l-.6-.3H119a1.8,1.8,0,0,0-.8.5l-.6.7-.6.6-.6,1a3.5,3.5,0,0,0-.3,1.1h.4l.3-.2a8.7,8.7,0,0,0,1.8-1.1l1.7-1.3Z"/>
        <path class="cls-12" d="M142.9,123.7l.5.2.4.2.2.4a2.5,2.5,0,0,1-.2.7l-.4.5a13.8,13.8,0,0,0-.6,1.6,7.9,7.9,0,0,1-.8,1.6l-.7,1.1-.9.9c-.2.2-.4.2-.7.3h-.8a2.3,2.3,0,0,1-1.6-1.1,10.4,10.4,0,0,1-1.1-2.9h-.1v-.3l-1,.7-.9.8-1.3,1.2a3.3,3.3,0,0,1-1.8,1.1,1.1,1.1,0,0,1-1,.1,2.4,2.4,0,0,1-1-.5,2,2,0,0,1-.9-.9,2.3,2.3,0,0,1-.6-1.2,2.6,2.6,0,0,1-.1-1.2,5.2,5.2,0,0,1,.7-2.4l1.2-1.5,1.4-1.2.7-.4h1.8l1,.2a1.1,1.1,0,0,1,.7.3c.2.2.4.3.5.5l.4.6v.3l-.3.2-.2.3h-.2l-.3-.2-.3-.3-.5-.3a1.8,1.8,0,0,0-1.3.3l-.5.5-.4.6-.2.2-.2.2h-.2a3.7,3.7,0,0,0-.5,1.1,3.5,3.5,0,0,0-.3,1.4c-.1,0-.1.2,0,.4h.3l4-2.9c.1,0,.1-.1.2-.2l.2-.2a1.3,1.3,0,0,0,.6-.4,2.1,2.1,0,0,0,.4-.6h.2v-.2l.5-.8a3,3,0,0,1,.4-.8l.2-.2a1.4,1.4,0,0,1,1.4.1.9.9,0,0,1,.6.6,2.2,2.2,0,0,1-.2,1,10.1,10.1,0,0,0-.4,2.5,11.5,11.5,0,0,0,.1,2.6,1.7,1.7,0,0,1,.1.7,1.1,1.1,0,0,0,.3.7h.2v-.2a5.9,5.9,0,0,0,1.3-1.7,13.6,13.6,0,0,0,1.1-2A15.9,15.9,0,0,0,142.9,123.7Z"/>
        <path class="cls-12" d="M157.9,123.6l.8,1-.2.2a1.7,1.7,0,0,1-.7,1h-.1l-1.8,1.5-1.7,1.8c.1,1.3.2,2.7.2,4a28.1,28.1,0,0,1-.1,4.1c0,.6-.1,1.2-.1,1.8a10.9,10.9,0,0,0-.1,1.8v.3a.4.4,0,0,1-.1.3,3.6,3.6,0,0,0-.2,1v1.6a2,2,0,0,1-.1.7c0,.3-.1.7-.1,1l-.3,1.1a8.8,8.8,0,0,1-.7,2.3,7.7,7.7,0,0,1-1.4,2.1,12.9,12.9,0,0,1-1.7,1.6,8.8,8.8,0,0,1-2,.9,5.4,5.4,0,0,1-3.1-.1H144a4.4,4.4,0,0,1-2.1-2.8v-.4a2.4,2.4,0,0,1-.2-.8c0-.2-.1-.5-.1-.7a6.5,6.5,0,0,1,0-3.1,14.9,14.9,0,0,1,.9-3,14.2,14.2,0,0,1,.8-1.8l1-1.6h0l1.3-2.2,1-1.7,1.2-1.6c.1-.2.3-.4.3-.5l.8-1.1a8.1,8.1,0,0,1,.9-1v-5.4c-.1-.1-.1-.4-.1-.7l-.5.6-.4.5-.4.5-.6.5a.7.7,0,0,1-.6.3l-.9.5a1.4,1.4,0,0,1-1.1.1h-.5l-.4-.2a1.9,1.9,0,0,1-1-1.4,17.8,17.8,0,0,1-.7-3.9v-2.3c0-.1.1-.2.1-.4a1,1,0,0,1,.5-.8,1.9,1.9,0,0,1,1.4-.3,1.1,1.1,0,0,1,.9.9c.1.2.1.5.2.7v.7c0,.7.1,1.3.1,2s.1,1.3.2,1.9a4.3,4.3,0,0,0,.1.5c0,.2.1.3.3.4h.7a1.7,1.7,0,0,0,.8-.7,13,13,0,0,1,1-1.5,6.9,6.9,0,0,0,1-1.7,1.4,1.4,0,0,1,.3-.9c.1-.2.1-.5.2-.8a2.9,2.9,0,0,1,.3-1,3.6,3.6,0,0,1,.4-.9h1.3a1.7,1.7,0,0,1,1.2,1l.2.5a.9.9,0,0,0-.3.7v.8a20.8,20.8,0,0,0,0,2.5,23.4,23.4,0,0,0,.4,2.6.3.3,0,0,0,.1.2h.3l.3-.2Zm-14.5,22.7a7.5,7.5,0,0,0-.2,2.1v2.1l.5,1.1a1.2,1.2,0,0,0,1.3.8l1.1-.2a2.4,2.4,0,0,0,.9-.6l1.5-2a3.2,3.2,0,0,0,.3-.9,2.9,2.9,0,0,1,.2-.9c0-.3.1-.6.1-.9s.1-.6.2-.8a2.8,2.8,0,0,1,.1-.9l.3-1.5a8.6,8.6,0,0,1,.1-1.6v-.6a1.3,1.3,0,0,1,.1-.6v-2a3.4,3.4,0,0,1,.1-1V136a2.8,2.8,0,0,0-.1-.9c0-.2-.1-.4-.1-.6V134l-.8,1-2.7,3.8a24.9,24.9,0,0,0-2.2,4.3,7.5,7.5,0,0,0-.5,1.6Z"/>
      </g>
      <g>
        <path class="cls-12" d="M82.4,143.8H80.7v4.4h-1v-4.4H78v-.9h4.4Z"/>
        <path class="cls-12" d="M88.8,148.2l-1-.2-.8-.6a2,2,0,0,1-.5-.9,1.6,1.6,0,0,1-.2-1,1.8,1.8,0,0,1,.2-1,2.2,2.2,0,0,1,.5-.8,1.6,1.6,0,0,1,.8-.6,2.6,2.6,0,0,1,2,0l.8.6a2.6,2.6,0,0,1,.5.9,2.9,2.9,0,0,1,.2.9,4.3,4.3,0,0,1-.2,1.1,3.5,3.5,0,0,1-.5.8l-.8.6Zm-1.5-2.7a1.5,1.5,0,0,0,.1.7l.3.6.5.3.6.2.6-.2.5-.4a.8.8,0,0,0,.2-.5,1.7,1.7,0,0,0,.1-.7,1.3,1.3,0,0,0-.1-.6.9.9,0,0,0-.3-.6.8.8,0,0,0-.4-.4H88.1l-.4.4-.3.6A1.3,1.3,0,0,0,87.3,145.5Z"/>
        <path class="cls-12" d="M101.5,142.9l1.3,2.5,1.3-2.5h1.1l-1.9,3.4v1.9h-1v-1.9l-1.9-3.4Z"/>
        <path class="cls-12" d="M111.3,148.2l-1-.2-.8-.6-.5-.9a3.1,3.1,0,0,1-.1-1,3.4,3.4,0,0,1,.1-1,2.4,2.4,0,0,1,.6-.8,1.6,1.6,0,0,1,.8-.6,1.6,1.6,0,0,1,1-.2,1.8,1.8,0,0,1,1,.2l.8.6a2.6,2.6,0,0,1,.5.9,2.8,2.8,0,0,1,.1.9,4.1,4.1,0,0,1-.1,1.1l-.6.8a2.8,2.8,0,0,1-.8.6Zm-1.4-2.7a1.5,1.5,0,0,0,.1.7c.1.2.1.4.3.6l.4.3.7.2.6-.2a.8.8,0,0,0,.4-.4.5.5,0,0,0,.3-.5,1.7,1.7,0,0,0,.1-.7,1.3,1.3,0,0,0-.1-.6l-.3-.6-.4-.4h-1.3c-.2.1-.3.3-.4.4a.9.9,0,0,0-.3.6A1.3,1.3,0,0,0,109.9,145.5Z"/>
        <path class="cls-12" d="M120.6,147.3l.6-.2.4-.3c.1-.2.1-.4.2-.6s.1-.4.1-.6v-2.7h1v2.7a3.6,3.6,0,0,1-.2,1,1.2,1.2,0,0,1-.4.8,1.3,1.3,0,0,1-.7.6l-1,.2-1.1-.2-.7-.6a2,2,0,0,1-.4-.8,3.4,3.4,0,0,1-.1-1v-2.7h1v2.7a1.3,1.3,0,0,0,.1.6,1.4,1.4,0,0,0,.2.6c.1.1.2.3.4.3A.8.8,0,0,0,120.6,147.3Z"/>
      </g>
    </g>
  </g>
</svg>
